<svg width="839" height="304" viewBox="0 0 839 304" fill="none" xmlns="http://www.w3.org/2000/svg">
<path d="M57 148.1C80.6667 149.498 132.6 155.017 151 165.917C174 179.542 206 147.052 235 156.485C264 165.917 279 186.878 311 181.638C343 176.397 362 255 419 255C464.6 255 488.667 202.598 495 176.397C499 162.424 511 132.59 527 125.044C547 115.611 564 57.9695 583 46.4411C602 34.9127 618 22.3363 632 85.2184C646 148.1 700 136.572 720 115.611C740 94.6506 759 114.563 769 135.524C779 156.485 807 187.926 838 188.974V255H419H57V148.1Z" fill="url(#paint0_linear)"/>
<path d="M83.4762 289.932C83.4762 292.236 85.1682 294.216 87.7602 294.216C90.4062 294.216 92.0982 292.236 92.0982 289.932V285.468C92.0982 283.146 90.4062 281.184 87.7602 281.184C85.1682 281.184 83.4762 283.146 83.4762 285.468V289.932ZM90.4602 289.932C90.4602 291.444 89.3982 292.74 87.7602 292.74C86.1582 292.74 85.1142 291.444 85.1142 289.932V285.468C85.1142 283.938 86.1582 282.66 87.7602 282.66C89.3982 282.66 90.4602 283.938 90.4602 285.468V289.932Z" fill="#29264C"/>
<path d="M199.964 294H207.83V292.524H201.836C201.836 290.814 202.322 290.13 204.428 288.942C205.526 288.366 207.83 287.196 207.83 284.856C207.83 282.498 206.246 281.202 203.996 281.202C201.8 281.202 199.964 282.678 199.964 285.144H201.602C201.602 283.542 202.61 282.678 203.978 282.678C205.31 282.678 206.192 283.398 206.192 284.712C206.192 286.404 204.806 287.07 203.51 287.718C201.314 288.87 199.964 290.022 199.964 294ZM209.51 289.932C209.51 292.236 211.202 294.216 213.794 294.216C216.44 294.216 218.132 292.236 218.132 289.932V285.468C218.132 283.146 216.44 281.184 213.794 281.184C211.202 281.184 209.51 283.146 209.51 285.468V289.932ZM216.494 289.932C216.494 291.444 215.432 292.74 213.794 292.74C212.192 292.74 211.148 291.444 211.148 289.932V285.468C211.148 283.938 212.192 282.66 213.794 282.66C215.432 282.66 216.494 283.938 216.494 285.468V289.932ZM219.934 289.932C219.934 292.236 221.626 294.216 224.218 294.216C226.864 294.216 228.556 292.236 228.556 289.932V285.468C228.556 283.146 226.864 281.184 224.218 281.184C221.626 281.184 219.934 283.146 219.934 285.468V289.932ZM226.918 289.932C226.918 291.444 225.856 292.74 224.218 292.74C222.616 292.74 221.572 291.444 221.572 289.932V285.468C221.572 283.938 222.616 282.66 224.218 282.66C225.856 282.66 226.918 283.938 226.918 285.468V289.932ZM230.358 289.932C230.358 292.236 232.05 294.216 234.642 294.216C237.288 294.216 238.98 292.236 238.98 289.932V285.468C238.98 283.146 237.288 281.184 234.642 281.184C232.05 281.184 230.358 283.146 230.358 285.468V289.932ZM237.342 289.932C237.342 291.444 236.28 292.74 234.642 292.74C233.04 292.74 231.996 291.444 231.996 289.932V285.468C231.996 283.938 233.04 282.66 234.642 282.66C236.28 282.66 237.342 283.938 237.342 285.468V289.932Z" fill="#29264C"/>
<path d="M344.701 294H346.339V289.95H348.229V288.474H346.339V284.586H344.701V288.474H341.659V281.4H340.021V289.95H344.701V294ZM349.629 289.932C349.629 292.236 351.321 294.216 353.913 294.216C356.559 294.216 358.251 292.236 358.251 289.932V285.468C358.251 283.146 356.559 281.184 353.913 281.184C351.321 281.184 349.629 283.146 349.629 285.468V289.932ZM356.613 289.932C356.613 291.444 355.551 292.74 353.913 292.74C352.311 292.74 351.267 291.444 351.267 289.932V285.468C351.267 283.938 352.311 282.66 353.913 282.66C355.551 282.66 356.613 283.938 356.613 285.468V289.932ZM360.052 289.932C360.052 292.236 361.744 294.216 364.336 294.216C366.982 294.216 368.674 292.236 368.674 289.932V285.468C368.674 283.146 366.982 281.184 364.336 281.184C361.744 281.184 360.052 283.146 360.052 285.468V289.932ZM367.036 289.932C367.036 291.444 365.974 292.74 364.336 292.74C362.734 292.74 361.69 291.444 361.69 289.932V285.468C361.69 283.938 362.734 282.66 364.336 282.66C365.974 282.66 367.036 283.938 367.036 285.468V289.932ZM370.476 289.932C370.476 292.236 372.168 294.216 374.76 294.216C377.406 294.216 379.098 292.236 379.098 289.932V285.468C379.098 283.146 377.406 281.184 374.76 281.184C372.168 281.184 370.476 283.146 370.476 285.468V289.932ZM377.46 289.932C377.46 291.444 376.398 292.74 374.76 292.74C373.158 292.74 372.114 291.444 372.114 289.932V285.468C372.114 283.938 373.158 282.66 374.76 282.66C376.398 282.66 377.46 283.938 377.46 285.468V289.932Z" fill="#29264C"/>
<path d="M487.677 294.198C490.323 294.198 492.015 292.218 492.015 289.914C492.015 287.592 490.323 285.612 487.677 285.612C487.407 285.612 487.083 285.684 486.903 285.828L489.783 281.4H487.893L484.131 287.412C483.681 288.132 483.393 288.996 483.393 289.914C483.393 292.218 485.085 294.198 487.677 294.198ZM487.677 292.722C486.075 292.722 485.031 291.426 485.031 289.914C485.031 288.384 486.075 287.106 487.677 287.106C489.315 287.106 490.377 288.384 490.377 289.914C490.377 291.426 489.315 292.722 487.677 292.722ZM493.629 289.932C493.629 292.236 495.321 294.216 497.913 294.216C500.559 294.216 502.251 292.236 502.251 289.932V285.468C502.251 283.146 500.559 281.184 497.913 281.184C495.321 281.184 493.629 283.146 493.629 285.468V289.932ZM500.613 289.932C500.613 291.444 499.551 292.74 497.913 292.74C496.311 292.74 495.267 291.444 495.267 289.932V285.468C495.267 283.938 496.311 282.66 497.913 282.66C499.551 282.66 500.613 283.938 500.613 285.468V289.932ZM504.052 289.932C504.052 292.236 505.744 294.216 508.336 294.216C510.982 294.216 512.674 292.236 512.674 289.932V285.468C512.674 283.146 510.982 281.184 508.336 281.184C505.744 281.184 504.052 283.146 504.052 285.468V289.932ZM511.036 289.932C511.036 291.444 509.974 292.74 508.336 292.74C506.734 292.74 505.69 291.444 505.69 289.932V285.468C505.69 283.938 506.734 282.66 508.336 282.66C509.974 282.66 511.036 283.938 511.036 285.468V289.932ZM514.476 289.932C514.476 292.236 516.168 294.216 518.76 294.216C521.406 294.216 523.098 292.236 523.098 289.932V285.468C523.098 283.146 521.406 281.184 518.76 281.184C516.168 281.184 514.476 283.146 514.476 285.468V289.932ZM521.46 289.932C521.46 291.444 520.398 292.74 518.76 292.74C517.158 292.74 516.114 291.444 516.114 289.932V285.468C516.114 283.938 517.158 282.66 518.76 282.66C520.398 282.66 521.46 283.938 521.46 285.468V289.932Z" fill="#29264C"/>
<path d="M628.507 294.198C631.153 294.198 632.737 292.47 632.737 290.454C632.737 289.176 632.071 287.808 630.649 287.412C631.927 286.962 632.467 285.828 632.467 284.694C632.467 282.786 630.973 281.202 628.507 281.202C626.041 281.202 624.547 282.75 624.547 284.694C624.547 285.828 625.087 286.962 626.365 287.412C624.943 287.808 624.277 289.14 624.277 290.454C624.277 292.524 625.879 294.198 628.507 294.198ZM628.507 286.854C627.067 286.854 626.203 285.936 626.203 284.766C626.203 283.614 627.085 282.678 628.507 282.678C629.947 282.678 630.811 283.614 630.811 284.766C630.811 285.918 629.965 286.854 628.507 286.854ZM628.507 292.722C626.905 292.722 625.915 291.714 625.915 290.454C625.915 289.212 626.851 288.186 628.507 288.186C630.163 288.186 631.099 289.23 631.099 290.454C631.099 291.696 630.127 292.722 628.507 292.722ZM634.629 289.932C634.629 292.236 636.321 294.216 638.913 294.216C641.559 294.216 643.251 292.236 643.251 289.932V285.468C643.251 283.146 641.559 281.184 638.913 281.184C636.321 281.184 634.629 283.146 634.629 285.468V289.932ZM641.613 289.932C641.613 291.444 640.551 292.74 638.913 292.74C637.311 292.74 636.267 291.444 636.267 289.932V285.468C636.267 283.938 637.311 282.66 638.913 282.66C640.551 282.66 641.613 283.938 641.613 285.468V289.932ZM645.052 289.932C645.052 292.236 646.744 294.216 649.336 294.216C651.982 294.216 653.674 292.236 653.674 289.932V285.468C653.674 283.146 651.982 281.184 649.336 281.184C646.744 281.184 645.052 283.146 645.052 285.468V289.932ZM652.036 289.932C652.036 291.444 650.974 292.74 649.336 292.74C647.734 292.74 646.69 291.444 646.69 289.932V285.468C646.69 283.938 647.734 282.66 649.336 282.66C650.974 282.66 652.036 283.938 652.036 285.468V289.932ZM655.476 289.932C655.476 292.236 657.168 294.216 659.76 294.216C662.406 294.216 664.098 292.236 664.098 289.932V285.468C664.098 283.146 662.406 281.184 659.76 281.184C657.168 281.184 655.476 283.146 655.476 285.468V289.932ZM662.46 289.932C662.46 291.444 661.398 292.74 659.76 292.74C658.158 292.74 657.114 291.444 657.114 289.932V285.468C657.114 283.938 658.158 282.66 659.76 282.66C661.398 282.66 662.46 283.938 662.46 285.468V289.932Z" fill="#29264C"/>
<path d="M765.608 284.802H768.164V294H769.856V281.4H768.29C768.29 282.912 767.858 283.488 765.608 283.488V284.802ZM772.155 289.932C772.155 292.236 773.847 294.216 776.439 294.216C779.085 294.216 780.777 292.236 780.777 289.932V285.468C780.777 283.146 779.085 281.184 776.439 281.184C773.847 281.184 772.155 283.146 772.155 285.468V289.932ZM779.139 289.932C779.139 291.444 778.077 292.74 776.439 292.74C774.837 292.74 773.793 291.444 773.793 289.932V285.468C773.793 283.938 774.837 282.66 776.439 282.66C778.077 282.66 779.139 283.938 779.139 285.468V289.932ZM782.579 289.932C782.579 292.236 784.271 294.216 786.863 294.216C789.509 294.216 791.201 292.236 791.201 289.932V285.468C791.201 283.146 789.509 281.184 786.863 281.184C784.271 281.184 782.579 283.146 782.579 285.468V289.932ZM789.563 289.932C789.563 291.444 788.501 292.74 786.863 292.74C785.261 292.74 784.217 291.444 784.217 289.932V285.468C784.217 283.938 785.261 282.66 786.863 282.66C788.501 282.66 789.563 283.938 789.563 285.468V289.932ZM793.003 289.932C793.003 292.236 794.695 294.216 797.287 294.216C799.933 294.216 801.625 292.236 801.625 289.932V285.468C801.625 283.146 799.933 281.184 797.287 281.184C794.695 281.184 793.003 283.146 793.003 285.468V289.932ZM799.987 289.932C799.987 291.444 798.925 292.74 797.287 292.74C795.685 292.74 794.641 291.444 794.641 289.932V285.468C794.641 283.938 795.685 282.66 797.287 282.66C798.925 282.66 799.987 283.938 799.987 285.468V289.932ZM803.426 289.932C803.426 292.236 805.118 294.216 807.71 294.216C810.356 294.216 812.048 292.236 812.048 289.932V285.468C812.048 283.146 810.356 281.184 807.71 281.184C805.118 281.184 803.426 283.146 803.426 285.468V289.932ZM810.41 289.932C810.41 291.444 809.348 292.74 807.71 292.74C806.108 292.74 805.064 291.444 805.064 289.932V285.468C805.064 283.938 806.108 282.66 807.71 282.66C809.348 282.66 810.41 283.938 810.41 285.468V289.932Z" fill="#29264C"/>
<path d="M5.91738 20.802H8.47338V30H10.1654V17.4H8.59938C8.59938 18.912 8.16738 19.488 5.91738 19.488V20.802ZM12.6085 28.848C12.6085 29.532 13.1665 30.09 13.8505 30.09C14.5525 30.09 15.1285 29.532 15.1285 28.848C15.1285 28.128 14.5525 27.57 13.8505 27.57C13.1665 27.57 12.6085 28.128 12.6085 28.848ZM17.0523 25.932C17.0523 28.236 18.7443 30.216 21.3363 30.216C23.9823 30.216 25.6743 28.236 25.6743 25.932V21.468C25.6743 19.146 23.9823 17.184 21.3363 17.184C18.7443 17.184 17.0523 19.146 17.0523 21.468V25.932ZM24.0363 25.932C24.0363 27.444 22.9743 28.74 21.3363 28.74C19.7343 28.74 18.6903 27.444 18.6903 25.932V21.468C18.6903 19.938 19.7343 18.66 21.3363 18.66C22.9743 18.66 24.0363 19.938 24.0363 21.468V25.932ZM27.4762 25.932C27.4762 28.236 29.1682 30.216 31.7602 30.216C34.4062 30.216 36.0982 28.236 36.0982 25.932V21.468C36.0982 19.146 34.4062 17.184 31.7602 17.184C29.1682 17.184 27.4762 19.146 27.4762 21.468V25.932ZM34.4602 25.932C34.4602 27.444 33.3982 28.74 31.7602 28.74C30.1582 28.74 29.1142 27.444 29.1142 25.932V21.468C29.1142 19.938 30.1582 18.66 31.7602 18.66C33.3982 18.66 34.4602 19.938 34.4602 21.468V25.932Z" fill="#29264C"/>
<rect x="49" y="23" width="8" height="2" fill="#9B9BA5"/>
<path d="M3.86875 78.932C3.86875 81.236 5.56075 83.216 8.15275 83.216C10.7988 83.216 12.4908 81.236 12.4908 78.932V74.468C12.4908 72.146 10.7988 70.184 8.15275 70.184C5.56075 70.184 3.86875 72.146 3.86875 74.468V78.932ZM10.8528 78.932C10.8528 80.444 9.79075 81.74 8.15275 81.74C6.55075 81.74 5.50675 80.444 5.50675 78.932V74.468C5.50675 72.938 6.55075 71.66 8.15275 71.66C9.79075 71.66 10.8528 72.938 10.8528 74.468V78.932ZM14.296 81.848C14.296 82.532 14.854 83.09 15.538 83.09C16.24 83.09 16.816 82.532 16.816 81.848C16.816 81.128 16.24 80.57 15.538 80.57C14.854 80.57 14.296 81.128 14.296 81.848ZM18.5238 70.4V71.876H23.9958L18.9918 83H20.7378L26.3358 70.4H18.5238ZM27.7002 77.636H29.3742C29.8422 76.628 30.6702 76.124 31.7322 76.124C33.3882 76.124 34.4142 77.384 34.4142 78.914C34.4142 80.426 33.3882 81.722 31.7322 81.722C30.1302 81.722 29.0862 80.426 29.0862 78.914H27.4482C27.4482 81.218 29.1402 83.198 31.7322 83.198C34.3602 83.198 36.0702 81.218 36.0702 78.914C36.0702 76.592 34.6302 74.648 32.0022 74.648C31.0122 74.648 29.6982 75.098 29.1762 76.088V71.876H35.1162V70.4H27.7002V77.636Z" fill="#29264C"/>
<rect x="49" y="76" width="8" height="2" fill="#9B9BA5"/>
<path d="M1.84727 131.932C1.84727 134.236 3.53927 136.216 6.13127 136.216C8.77727 136.216 10.4693 134.236 10.4693 131.932V127.468C10.4693 125.146 8.77727 123.184 6.13127 123.184C3.53927 123.184 1.84727 125.146 1.84727 127.468V131.932ZM8.83127 131.932C8.83127 133.444 7.76927 134.74 6.13127 134.74C4.52927 134.74 3.48527 133.444 3.48527 131.932V127.468C3.48527 125.938 4.52927 124.66 6.13127 124.66C7.76927 124.66 8.83127 125.938 8.83127 127.468V131.932ZM12.2745 134.848C12.2745 135.532 12.8325 136.09 13.5165 136.09C14.2185 136.09 14.7945 135.532 14.7945 134.848C14.7945 134.128 14.2185 133.57 13.5165 133.57C12.8325 133.57 12.2745 134.128 12.2745 134.848ZM17.2764 130.636H18.9504C19.4184 129.628 20.2464 129.124 21.3084 129.124C22.9644 129.124 23.9904 130.384 23.9904 131.914C23.9904 133.426 22.9644 134.722 21.3084 134.722C19.7064 134.722 18.6624 133.426 18.6624 131.914H17.0244C17.0244 134.218 18.7164 136.198 21.3084 136.198C23.9364 136.198 25.6464 134.218 25.6464 131.914C25.6464 129.592 24.2064 127.648 21.5784 127.648C20.5884 127.648 19.2744 128.098 18.7524 129.088V124.876H24.6924V123.4H17.2764V130.636ZM27.4762 131.932C27.4762 134.236 29.1682 136.216 31.7602 136.216C34.4062 136.216 36.0982 134.236 36.0982 131.932V127.468C36.0982 125.146 34.4062 123.184 31.7602 123.184C29.1682 123.184 27.4762 125.146 27.4762 127.468V131.932ZM34.4602 131.932C34.4602 133.444 33.3982 134.74 31.7602 134.74C30.1582 134.74 29.1142 133.444 29.1142 131.932V127.468C29.1142 125.938 30.1582 124.66 31.7602 124.66C33.3982 124.66 34.4602 125.938 34.4602 127.468V131.932Z" fill="#29264C"/>
<rect x="49" y="129" width="8" height="2" fill="#9B9BA5"/>
<path d="M2.8668 184.932C2.8668 187.236 4.5588 189.216 7.1508 189.216C9.7968 189.216 11.4888 187.236 11.4888 184.932V180.468C11.4888 178.146 9.7968 176.184 7.1508 176.184C4.5588 176.184 2.8668 178.146 2.8668 180.468V184.932ZM9.8508 184.932C9.8508 186.444 8.7888 187.74 7.1508 187.74C5.5488 187.74 4.5048 186.444 4.5048 184.932V180.468C4.5048 178.938 5.5488 177.66 7.1508 177.66C8.7888 177.66 9.8508 178.938 9.8508 180.468V184.932ZM13.294 187.848C13.294 188.532 13.852 189.09 14.536 189.09C15.238 189.09 15.814 188.532 15.814 187.848C15.814 187.128 15.238 186.57 14.536 186.57C13.852 186.57 13.294 187.128 13.294 187.848ZM17.6839 189H25.5499V187.524H19.5559C19.5559 185.814 20.0419 185.13 22.1479 183.942C23.2459 183.366 25.5499 182.196 25.5499 179.856C25.5499 177.498 23.9659 176.202 21.7159 176.202C19.5199 176.202 17.6839 177.678 17.6839 180.144H19.3219C19.3219 178.542 20.3299 177.678 21.6979 177.678C23.0299 177.678 23.9119 178.398 23.9119 179.712C23.9119 181.404 22.5259 182.07 21.2299 182.718C19.0339 183.87 17.6839 185.022 17.6839 189ZM27.7002 183.636H29.3742C29.8422 182.628 30.6702 182.124 31.7322 182.124C33.3882 182.124 34.4142 183.384 34.4142 184.914C34.4142 186.426 33.3882 187.722 31.7322 187.722C30.1302 187.722 29.0862 186.426 29.0862 184.914H27.4482C27.4482 187.218 29.1402 189.198 31.7322 189.198C34.3602 189.198 36.0702 187.218 36.0702 184.914C36.0702 182.592 34.6302 180.648 32.0022 180.648C31.0122 180.648 29.6982 181.098 29.1762 182.088V177.876H35.1162V176.4H27.7002V183.636Z" fill="#29264C"/>
<rect x="49" y="182" width="8" height="2" fill="#9B9BA5"/>
<rect x="89" y="258" width="8" height="2" transform="rotate(90 89 258)" fill="#9B9BA5"/>
<rect x="223" y="258" width="8" height="2" transform="rotate(90 223 258)" fill="#9B9BA5"/>
<rect x="360" y="258" width="8" height="2" transform="rotate(90 360 258)" fill="#9B9BA5"/>
<rect x="504" y="258" width="8" height="2" transform="rotate(90 504 258)" fill="#9B9BA5"/>
<rect x="645" y="258" width="8" height="2" transform="rotate(90 645 258)" fill="#9B9BA5"/>
<rect x="790" y="258" width="8" height="2" transform="rotate(90 790 258)" fill="#9B9BA5"/>
<path d="M2.18125 237.932C2.18125 240.236 3.87325 242.216 6.46525 242.216C9.11125 242.216 10.8033 240.236 10.8033 237.932V233.468C10.8033 231.146 9.11125 229.184 6.46525 229.184C3.87325 229.184 2.18125 231.146 2.18125 233.468V237.932ZM9.16525 237.932C9.16525 239.444 8.10325 240.74 6.46525 240.74C4.86325 240.74 3.81925 239.444 3.81925 237.932V233.468C3.81925 231.938 4.86325 230.66 6.46525 230.66C8.10325 230.66 9.16525 231.938 9.16525 233.468V237.932ZM12.6085 240.848C12.6085 241.532 13.1665 242.09 13.8505 242.09C14.5525 242.09 15.1285 241.532 15.1285 240.848C15.1285 240.128 14.5525 239.57 13.8505 239.57C13.1665 239.57 12.6085 240.128 12.6085 240.848ZM17.0523 237.932C17.0523 240.236 18.7443 242.216 21.3363 242.216C23.9823 242.216 25.6743 240.236 25.6743 237.932V233.468C25.6743 231.146 23.9823 229.184 21.3363 229.184C18.7443 229.184 17.0523 231.146 17.0523 233.468V237.932ZM24.0363 237.932C24.0363 239.444 22.9743 240.74 21.3363 240.74C19.7343 240.74 18.6903 239.444 18.6903 237.932V233.468C18.6903 231.938 19.7343 230.66 21.3363 230.66C22.9743 230.66 24.0363 231.938 24.0363 233.468V237.932ZM27.4762 237.932C27.4762 240.236 29.1682 242.216 31.7602 242.216C34.4062 242.216 36.0982 240.236 36.0982 237.932V233.468C36.0982 231.146 34.4062 229.184 31.7602 229.184C29.1682 229.184 27.4762 231.146 27.4762 233.468V237.932ZM34.4602 237.932C34.4602 239.444 33.3982 240.74 31.7602 240.74C30.1582 240.74 29.1142 239.444 29.1142 237.932V233.468C29.1142 231.938 30.1582 230.66 31.7602 230.66C33.3982 230.66 34.4602 231.938 34.4602 233.468V237.932Z" fill="#29264C"/>
<rect x="49" y="235" width="8" height="2" fill="#9B9BA5"/>
<rect x="838" y="258" width="2.00003" height="781" transform="rotate(90 838 258)" fill="#9B9BA5"/>
<path d="M57 148.1C80.6667 149.498 132.6 155.017 151 165.917C174 179.542 206 147.052 235 156.485C264 165.917 279 186.878 311 181.638C343 176.397 362 255 419 255C464.6 255 488.667 202.598 495 176.397C499 162.424 511 132.59 527 125.044C547 115.611 564 57.9695 583 46.4411C602 34.9127 618 22.3363 632 85.2184C646 148.1 700 136.572 720 115.611C740 94.6506 759 114.563 769 135.524C779 156.485 807 187.926 838 188.974" stroke="#F39C8A" stroke-width="4"/>
<rect x="776" y="146" width="24" height="24" rx="4" fill="#101014"/>
<path d="M735.09 91.1538C735.672 89.2777 738.328 89.2777 738.91 91.1538L740.907 97.5866C741.169 98.4327 741.957 99.0053 742.843 98.9936L749.578 98.9047C751.543 98.8788 752.363 101.404 750.759 102.538L745.258 106.425C744.534 106.936 744.233 107.862 744.518 108.701L746.684 115.079C747.316 116.939 745.167 118.5 743.593 117.325L738.197 113.294C737.487 112.764 736.513 112.764 735.803 113.294L730.407 117.325C728.833 118.5 726.684 116.939 727.316 115.079L729.482 108.701C729.767 107.862 729.466 106.936 728.742 106.425L723.241 102.538C721.637 101.404 722.457 98.8788 724.422 98.9047L731.157 98.9936C732.043 99.0053 732.831 98.4327 733.093 97.5866L735.09 91.1538Z" fill="#E83814"/>
<rect x="57" width="2" height="259" fill="#9B9BA5"/>
<defs>
<linearGradient id="paint0_linear" x1="447.5" y1="37" x2="447.5" y2="255" gradientUnits="userSpaceOnUse">
<stop stop-color="#F39C8A"/>
<stop offset="1" stop-color="white" stop-opacity="0"/>
</linearGradient>
</defs>
</svg>
