<svg width="827" height="527" viewBox="0 0 827 527" fill="none" xmlns="http://www.w3.org/2000/svg">
<path d="M72.4762 512.932C72.4762 515.236 74.1682 517.216 76.7602 517.216C79.4062 517.216 81.0982 515.236 81.0982 512.932V508.468C81.0982 506.146 79.4062 504.184 76.7602 504.184C74.1682 504.184 72.4762 506.146 72.4762 508.468V512.932ZM79.4602 512.932C79.4602 514.444 78.3982 515.74 76.7602 515.74C75.1582 515.74 74.1142 514.444 74.1142 512.932V508.468C74.1142 506.938 75.1582 505.66 76.7602 505.66C78.3982 505.66 79.4602 506.938 79.4602 508.468V512.932Z" fill="#29264C"/>
<path d="M201.93 517H209.796V515.524H203.802C203.802 513.814 204.288 513.13 206.394 511.942C207.492 511.366 209.796 510.196 209.796 507.856C209.796 505.498 208.212 504.202 205.962 504.202C203.766 504.202 201.93 505.678 201.93 508.144H203.568C203.568 506.542 204.576 505.678 205.944 505.678C207.276 505.678 208.158 506.398 208.158 507.712C208.158 509.404 206.772 510.07 205.476 510.718C203.28 511.87 201.93 513.022 201.93 517ZM211.476 512.932C211.476 515.236 213.168 517.216 215.76 517.216C218.406 517.216 220.098 515.236 220.098 512.932V508.468C220.098 506.146 218.406 504.184 215.76 504.184C213.168 504.184 211.476 506.146 211.476 508.468V512.932ZM218.46 512.932C218.46 514.444 217.398 515.74 215.76 515.74C214.158 515.74 213.114 514.444 213.114 512.932V508.468C213.114 506.938 214.158 505.66 215.76 505.66C217.398 505.66 218.46 506.938 218.46 508.468V512.932Z" fill="#29264C"/>
<path d="M344.549 517H346.187V512.95H348.077V511.474H346.187V507.586H344.549V511.474H341.507V504.4H339.869V512.95H344.549V517ZM349.476 512.932C349.476 515.236 351.168 517.216 353.76 517.216C356.406 517.216 358.098 515.236 358.098 512.932V508.468C358.098 506.146 356.406 504.184 353.76 504.184C351.168 504.184 349.476 506.146 349.476 508.468V512.932ZM356.46 512.932C356.46 514.444 355.398 515.74 353.76 515.74C352.158 515.74 351.114 514.444 351.114 512.932V508.468C351.114 506.938 352.158 505.66 353.76 505.66C355.398 505.66 356.46 506.938 356.46 508.468V512.932Z" fill="#29264C"/>
<path d="M486.524 517.198C489.17 517.198 490.862 515.218 490.862 512.914C490.862 510.592 489.17 508.612 486.524 508.612C486.254 508.612 485.93 508.684 485.75 508.828L488.63 504.4H486.74L482.978 510.412C482.528 511.132 482.24 511.996 482.24 512.914C482.24 515.218 483.932 517.198 486.524 517.198ZM486.524 515.722C484.922 515.722 483.878 514.426 483.878 512.914C483.878 511.384 484.922 510.106 486.524 510.106C488.162 510.106 489.224 511.384 489.224 512.914C489.224 514.426 488.162 515.722 486.524 515.722ZM492.476 512.932C492.476 515.236 494.168 517.216 496.76 517.216C499.406 517.216 501.098 515.236 501.098 512.932V508.468C501.098 506.146 499.406 504.184 496.76 504.184C494.168 504.184 492.476 506.146 492.476 508.468V512.932ZM499.46 512.932C499.46 514.444 498.398 515.74 496.76 515.74C495.158 515.74 494.114 514.444 494.114 512.932V508.468C494.114 506.938 495.158 505.66 496.76 505.66C498.398 505.66 499.46 506.938 499.46 508.468V512.932Z" fill="#29264C"/>
<path d="M627.355 517.198C630.001 517.198 631.585 515.47 631.585 513.454C631.585 512.176 630.919 510.808 629.497 510.412C630.775 509.962 631.315 508.828 631.315 507.694C631.315 505.786 629.821 504.202 627.355 504.202C624.889 504.202 623.395 505.75 623.395 507.694C623.395 508.828 623.935 509.962 625.213 510.412C623.791 510.808 623.125 512.14 623.125 513.454C623.125 515.524 624.727 517.198 627.355 517.198ZM627.355 509.854C625.915 509.854 625.051 508.936 625.051 507.766C625.051 506.614 625.933 505.678 627.355 505.678C628.795 505.678 629.659 506.614 629.659 507.766C629.659 508.918 628.813 509.854 627.355 509.854ZM627.355 515.722C625.753 515.722 624.763 514.714 624.763 513.454C624.763 512.212 625.699 511.186 627.355 511.186C629.011 511.186 629.947 512.23 629.947 513.454C629.947 514.696 628.975 515.722 627.355 515.722ZM633.476 512.932C633.476 515.236 635.168 517.216 637.76 517.216C640.406 517.216 642.098 515.236 642.098 512.932V508.468C642.098 506.146 640.406 504.184 637.76 504.184C635.168 504.184 633.476 506.146 633.476 508.468V512.932ZM640.46 512.932C640.46 514.444 639.398 515.74 637.76 515.74C636.158 515.74 635.114 514.444 635.114 512.932V508.468C635.114 506.938 636.158 505.66 637.76 505.66C639.398 505.66 640.46 506.938 640.46 508.468V512.932Z" fill="#29264C"/>
<path d="M765.505 507.802H768.061V517H769.753V504.4H768.187C768.187 505.912 767.755 506.488 765.505 506.488V507.802ZM772.052 512.932C772.052 515.236 773.744 517.216 776.336 517.216C778.982 517.216 780.674 515.236 780.674 512.932V508.468C780.674 506.146 778.982 504.184 776.336 504.184C773.744 504.184 772.052 506.146 772.052 508.468V512.932ZM779.036 512.932C779.036 514.444 777.974 515.74 776.336 515.74C774.734 515.74 773.69 514.444 773.69 512.932V508.468C773.69 506.938 774.734 505.66 776.336 505.66C777.974 505.66 779.036 506.938 779.036 508.468V512.932ZM782.476 512.932C782.476 515.236 784.168 517.216 786.76 517.216C789.406 517.216 791.098 515.236 791.098 512.932V508.468C791.098 506.146 789.406 504.184 786.76 504.184C784.168 504.184 782.476 506.146 782.476 508.468V512.932ZM789.46 512.932C789.46 514.444 788.398 515.74 786.76 515.74C785.158 515.74 784.114 514.444 784.114 512.932V508.468C784.114 506.938 785.158 505.66 786.76 505.66C788.398 505.66 789.46 506.938 789.46 508.468V512.932Z" fill="#29264C"/>
<path d="M5.76308 31.802H8.31908V41H10.0111V28.4H8.44508C8.44508 29.912 8.01308 30.488 5.76308 30.488V31.802ZM12.4542 39.848C12.4542 40.532 13.0122 41.09 13.6962 41.09C14.3982 41.09 14.9742 40.532 14.9742 39.848C14.9742 39.128 14.3982 38.57 13.6962 38.57C13.0122 38.57 12.4542 39.128 12.4542 39.848ZM20.948 41.198C23.594 41.198 25.286 39.218 25.286 36.914C25.286 34.592 23.594 32.612 20.948 32.612C20.678 32.612 20.354 32.684 20.174 32.828L23.054 28.4H21.164L17.402 34.412C16.952 35.132 16.664 35.996 16.664 36.914C16.664 39.218 18.356 41.198 20.948 41.198ZM20.948 39.722C19.346 39.722 18.302 38.426 18.302 36.914C18.302 35.384 19.346 34.106 20.948 34.106C22.586 34.106 23.648 35.384 23.648 36.914C23.648 38.426 22.586 39.722 20.948 39.722Z" fill="#29264C"/>
<rect x="38" y="34" width="8" height="2" fill="#9B9BA5"/>
<path d="M5.83339 84.802H8.38939V94H10.0814V81.4H8.51539C8.51539 82.912 8.08339 83.488 5.83339 83.488V84.802ZM12.5245 92.848C12.5245 93.532 13.0825 94.09 13.7665 94.09C14.4685 94.09 15.0445 93.532 15.0445 92.848C15.0445 92.128 14.4685 91.57 13.7665 91.57C13.0825 91.57 12.5245 92.128 12.5245 92.848ZM21.9724 94H23.6104V89.95H25.5004V88.474H23.6104V84.586H21.9724V88.474H18.9304V81.4H17.2924V89.95H21.9724V94Z" fill="#29264C"/>
<rect x="38" y="87" width="8" height="2" fill="#9B9BA5"/>
<path d="M6.27284 137.802H8.82884V147H10.5208V134.4H8.95484C8.95484 135.912 8.52284 136.488 6.27284 136.488V137.802ZM12.9639 145.848C12.9639 146.532 13.5219 147.09 14.2059 147.09C14.9079 147.09 15.4839 146.532 15.4839 145.848C15.4839 145.128 14.9079 144.57 14.2059 144.57C13.5219 144.57 12.9639 145.128 12.9639 145.848ZM17.3538 147H25.2198V145.524H19.2258C19.2258 143.814 19.7118 143.13 21.8178 141.942C22.9158 141.366 25.2198 140.196 25.2198 137.856C25.2198 135.498 23.6358 134.202 21.3858 134.202C19.1898 134.202 17.3538 135.678 17.3538 138.144H18.9918C18.9918 136.542 19.9998 135.678 21.3678 135.678C22.6998 135.678 23.5818 136.398 23.5818 137.712C23.5818 139.404 22.1958 140.07 20.8998 140.718C18.7038 141.87 17.3538 143.022 17.3538 147Z" fill="#29264C"/>
<rect x="38" y="140" width="8" height="2" fill="#9B9BA5"/>
<path d="M5.3412 190.802H7.8972V200H9.5892V187.4H8.0232C8.0232 188.912 7.5912 189.488 5.3412 189.488V190.802ZM12.0323 198.848C12.0323 199.532 12.5903 200.09 13.2743 200.09C13.9763 200.09 14.5523 199.532 14.5523 198.848C14.5523 198.128 13.9763 197.57 13.2743 197.57C12.5903 197.57 12.0323 198.128 12.0323 198.848ZM16.4762 195.932C16.4762 198.236 18.1682 200.216 20.7602 200.216C23.4062 200.216 25.0982 198.236 25.0982 195.932V191.468C25.0982 189.146 23.4062 187.184 20.7602 187.184C18.1682 187.184 16.4762 189.146 16.4762 191.468V195.932ZM23.4602 195.932C23.4602 197.444 22.3982 198.74 20.7602 198.74C19.1582 198.74 18.1142 197.444 18.1142 195.932V191.468C18.1142 189.938 19.1582 188.66 20.7602 188.66C22.3982 188.66 23.4602 189.938 23.4602 191.468V195.932Z" fill="#29264C"/>
<rect x="38" y="193" width="8" height="2" fill="#9B9BA5"/>
<path d="M1.5875 248.932C1.5875 251.236 3.2795 253.216 5.8715 253.216C8.5175 253.216 10.2095 251.236 10.2095 248.932V244.468C10.2095 242.146 8.5175 240.184 5.8715 240.184C3.2795 240.184 1.5875 242.146 1.5875 244.468V248.932ZM8.5715 248.932C8.5715 250.444 7.5095 251.74 5.8715 251.74C4.2695 251.74 3.2255 250.444 3.2255 248.932V244.468C3.2255 242.938 4.2695 241.66 5.8715 241.66C7.5095 241.66 8.5715 242.938 8.5715 244.468V248.932ZM12.0147 251.848C12.0147 252.532 12.5727 253.09 13.2567 253.09C13.9587 253.09 14.5347 252.532 14.5347 251.848C14.5347 251.128 13.9587 250.57 13.2567 250.57C12.5727 250.57 12.0147 251.128 12.0147 251.848ZM20.7786 253.198C23.4246 253.198 25.0086 251.47 25.0086 249.454C25.0086 248.176 24.3426 246.808 22.9206 246.412C24.1986 245.962 24.7386 244.828 24.7386 243.694C24.7386 241.786 23.2446 240.202 20.7786 240.202C18.3126 240.202 16.8186 241.75 16.8186 243.694C16.8186 244.828 17.3586 245.962 18.6366 246.412C17.2146 246.808 16.5486 248.14 16.5486 249.454C16.5486 251.524 18.1506 253.198 20.7786 253.198ZM20.7786 245.854C19.3386 245.854 18.4746 244.936 18.4746 243.766C18.4746 242.614 19.3566 241.678 20.7786 241.678C22.2186 241.678 23.0826 242.614 23.0826 243.766C23.0826 244.918 22.2366 245.854 20.7786 245.854ZM20.7786 251.722C19.1766 251.722 18.1866 250.714 18.1866 249.454C18.1866 248.212 19.1226 247.186 20.7786 247.186C22.4346 247.186 23.3706 248.23 23.3706 249.454C23.3706 250.696 22.3986 251.722 20.7786 251.722Z" fill="#29264C"/>
<rect x="38" y="246" width="8" height="2" fill="#9B9BA5"/>
<path d="M2.02695 301.932C2.02695 304.236 3.71895 306.216 6.31095 306.216C8.95695 306.216 10.649 304.236 10.649 301.932V297.468C10.649 295.146 8.95695 293.184 6.31095 293.184C3.71895 293.184 2.02695 295.146 2.02695 297.468V301.932ZM9.01095 301.932C9.01095 303.444 7.94895 304.74 6.31095 304.74C4.70895 304.74 3.66495 303.444 3.66495 301.932V297.468C3.66495 295.938 4.70895 294.66 6.31095 294.66C7.94895 294.66 9.01095 295.938 9.01095 297.468V301.932ZM12.4542 304.848C12.4542 305.532 13.0122 306.09 13.6962 306.09C14.3982 306.09 14.9742 305.532 14.9742 304.848C14.9742 304.128 14.3982 303.57 13.6962 303.57C13.0122 303.57 12.4542 304.128 12.4542 304.848ZM20.948 306.198C23.594 306.198 25.286 304.218 25.286 301.914C25.286 299.592 23.594 297.612 20.948 297.612C20.678 297.612 20.354 297.684 20.174 297.828L23.054 293.4H21.164L17.402 299.412C16.952 300.132 16.664 300.996 16.664 301.914C16.664 304.218 18.356 306.198 20.948 306.198ZM20.948 304.722C19.346 304.722 18.302 303.426 18.302 301.914C18.302 300.384 19.346 299.106 20.948 299.106C22.586 299.106 23.648 300.384 23.648 301.914C23.648 303.426 22.586 304.722 20.948 304.722Z" fill="#29264C"/>
<rect x="38" y="299" width="8" height="2" fill="#9B9BA5"/>
<path d="M2.09727 354.932C2.09727 357.236 3.78927 359.216 6.38127 359.216C9.02727 359.216 10.7193 357.236 10.7193 354.932V350.468C10.7193 348.146 9.02727 346.184 6.38127 346.184C3.78927 346.184 2.09727 348.146 2.09727 350.468V354.932ZM9.08127 354.932C9.08127 356.444 8.01927 357.74 6.38127 357.74C4.77927 357.74 3.73527 356.444 3.73527 354.932V350.468C3.73527 348.938 4.77927 347.66 6.38127 347.66C8.01927 347.66 9.08127 348.938 9.08127 350.468V354.932ZM12.5245 357.848C12.5245 358.532 13.0825 359.09 13.7665 359.09C14.4685 359.09 15.0445 358.532 15.0445 357.848C15.0445 357.128 14.4685 356.57 13.7665 356.57C13.0825 356.57 12.5245 357.128 12.5245 357.848ZM21.9724 359H23.6104V354.95H25.5004V353.474H23.6104V349.586H21.9724V353.474H18.9304V346.4H17.2924V354.95H21.9724V359Z" fill="#29264C"/>
<rect x="38" y="352" width="8" height="2" fill="#9B9BA5"/>
<path d="M2.53672 407.932C2.53672 410.236 4.22872 412.216 6.82072 412.216C9.46672 412.216 11.1587 410.236 11.1587 407.932V403.468C11.1587 401.146 9.46672 399.184 6.82072 399.184C4.22872 399.184 2.53672 401.146 2.53672 403.468V407.932ZM9.52072 407.932C9.52072 409.444 8.45872 410.74 6.82072 410.74C5.21872 410.74 4.17472 409.444 4.17472 407.932V403.468C4.17472 401.938 5.21872 400.66 6.82072 400.66C8.45872 400.66 9.52072 401.938 9.52072 403.468V407.932ZM12.9639 410.848C12.9639 411.532 13.5219 412.09 14.2059 412.09C14.9079 412.09 15.4839 411.532 15.4839 410.848C15.4839 410.128 14.9079 409.57 14.2059 409.57C13.5219 409.57 12.9639 410.128 12.9639 410.848ZM17.3538 412H25.2198V410.524H19.2258C19.2258 408.814 19.7118 408.13 21.8178 406.942C22.9158 406.366 25.2198 405.196 25.2198 402.856C25.2198 400.498 23.6358 399.202 21.3858 399.202C19.1898 399.202 17.3538 400.678 17.3538 403.144H18.9918C18.9918 401.542 19.9998 400.678 21.3678 400.678C22.6998 400.678 23.5818 401.398 23.5818 402.712C23.5818 404.404 22.1958 405.07 20.8998 405.718C18.7038 406.87 17.3538 408.022 17.3538 412Z" fill="#29264C"/>
<rect x="38" y="405" width="8" height="2" fill="#9B9BA5"/>
<rect x="78" y="481" width="8" height="2" transform="rotate(90 78 481)" fill="#9B9BA5"/>
<rect x="212" y="481" width="8" height="2" transform="rotate(90 212 481)" fill="#9B9BA5"/>
<rect x="349" y="481" width="8" height="2" transform="rotate(90 349 481)" fill="#9B9BA5"/>
<rect x="493" y="481" width="8" height="2" transform="rotate(90 493 481)" fill="#9B9BA5"/>
<rect x="634" y="481" width="8" height="2" transform="rotate(90 634 481)" fill="#9B9BA5"/>
<rect x="779" y="481" width="8" height="2" transform="rotate(90 779 481)" fill="#9B9BA5"/>
<path d="M1.60508 460.932C1.60508 463.236 3.29708 465.216 5.88908 465.216C8.53508 465.216 10.2271 463.236 10.2271 460.932V456.468C10.2271 454.146 8.53508 452.184 5.88908 452.184C3.29708 452.184 1.60508 454.146 1.60508 456.468V460.932ZM8.58908 460.932C8.58908 462.444 7.52708 463.74 5.88908 463.74C4.28708 463.74 3.24308 462.444 3.24308 460.932V456.468C3.24308 454.938 4.28708 453.66 5.88908 453.66C7.52708 453.66 8.58908 454.938 8.58908 456.468V460.932ZM12.0323 463.848C12.0323 464.532 12.5903 465.09 13.2743 465.09C13.9763 465.09 14.5523 464.532 14.5523 463.848C14.5523 463.128 13.9763 462.57 13.2743 462.57C12.5903 462.57 12.0323 463.128 12.0323 463.848ZM16.4762 460.932C16.4762 463.236 18.1682 465.216 20.7602 465.216C23.4062 465.216 25.0982 463.236 25.0982 460.932V456.468C25.0982 454.146 23.4062 452.184 20.7602 452.184C18.1682 452.184 16.4762 454.146 16.4762 456.468V460.932ZM23.4602 460.932C23.4602 462.444 22.3982 463.74 20.7602 463.74C19.1582 463.74 18.1142 462.444 18.1142 460.932V456.468C18.1142 454.938 19.1582 453.66 20.7602 453.66C22.3982 453.66 23.4602 454.938 23.4602 456.468V460.932Z" fill="#29264C"/>
<rect x="38" y="458" width="8" height="2" fill="#9B9BA5"/>
<rect x="46" width="2" height="482" fill="#9B9BA5"/>
<rect x="827" y="481" width="2.00003" height="781" transform="rotate(90 827 481)" fill="#9B9BA5"/>
<path d="M88 138.999L76 458.999H777L765 289C670 234 674 63.9998 619 43.9998C564 23.9998 506 212 487 232C468 252 443 254 394 138.999C360.766 61 313 71 293 138.999C282.118 175.999 240 191.001 203 180C151.23 164.608 149 94.9995 122 96.9995C100.4 98.5994 90.3333 125.666 88 138.999Z" fill="url(#paint0_linear)"/>
<path d="M76 461.487L88 141.487C90.3333 128.153 100.4 101.087 122 99.4868C149 97.4868 151.23 167.096 203 182.487C240 193.488 282.118 178.487 293 141.487C313 73.4873 360.765 63.4873 394 141.487C443 256.487 468 254.487 487 234.487C506 214.487 564 26.4871 619 46.4871C674 66.4871 670 236.487 765 291.487L777 461.487" stroke="#599ED2" stroke-width="4"/>
<rect x="244" y="160" width="30" height="30" rx="4" fill="#19CA94"/>
<path d="M351.299 81.8894L331.373 70.3749C328.728 68.8464 325.415 70.7275 325.372 73.7822L325.054 96.4931C325.011 99.5642 328.302 101.536 330.99 100.049L351.234 88.8531C353.956 87.3472 353.993 83.4461 351.299 81.8894Z" fill="#EC6043"/>
<defs>
<linearGradient id="paint0_linear" x1="426.5" y1="42.5127" x2="426.5" y2="458.999" gradientUnits="userSpaceOnUse">
<stop stop-color="#88B9DF"/>
<stop offset="1" stop-color="white" stop-opacity="0"/>
</linearGradient>
</defs>
</svg>
